<svg version="1.2" xmlns="http://www.w3.org/2000/svg" viewBox="0 0 216 236" width="216" height="236"><style>.a{fill:#bb2626}</style><path fill-rule="evenodd" d="m-432 253l48.3 41.8h1.4 3 2.9 1.5l48.2-41.8v-41.9h-20.9v31.4l-31.4 27.9h-0.7l-31.4-27.9v-31.4h-20.9z"/><path fill-rule="evenodd" d="m-303 235.6c0 49.6-2.9 58.1 28 59.2h41.8v-24.4h-39.3c-7.1 0-9.1-2.2-9.6-8v-16.4c0-6.3 0.7-10.5 10-10.5h59.8v59.3h20.9v-83.7h-88.8c-14.8 0-22.8 9.3-22.8 24.5z"/><path fill-rule="evenodd" d="m-560.9 235.6c0 49.6-2.9 58.1 27.9 59.2h41.8v-24.4h-39.3c-7.1 0-9.1-2.2-9.6-8l0.1-16.4c0-6.3 0.7-10.5 9.9-10.5h59.8v59.3h20.9v-83.7h-88.7c-14.9 0-22.8 9.3-22.8 24.5z"/><path fill-rule="evenodd" d="m-167.3 235.6v59.2l21.1 0.1-0.1-48.9c0-6.3 0.7-10.5 9.9-10.5h59.8v59.3h20.9v-83.7h-88.7c-14.9 0-22.8 9.3-22.8 24.5z"/><path fill-rule="evenodd" class="a" d="m151.5 219.1c-3 6.7-9.1 12.8-11.9 11.9-9.5-3-3.9-17 2.7-33.9 1.6-4.1 7.7-24.3 7.9-21.1 0.8 14.3 2.1 17.6 1.3 43.1z"/><path fill-rule="evenodd" class="a" d="m118.1 127.8c-16.3-8.7-60.7-24.2-60.7-43.4 0-11.8 10.9-27.8 35-28 24.2-0.3 51.3 8.8 63.3 24.6 12 15.8 21.6 32.4 21.3 67.6-0.1 12.1-8.3 96.3-24 71.9 1.3-24.3 0.8-25.8-1.5-50.9-0.3-3.2-0.4-15.7-0.4-15.7 12-5.9 10.1-21.3 4.3-30.7-7.2-11.7-16.1-19.4-18.4-21-2.3-1.5-6.4-3.7-6.6-2.5-0.7 3.3 13.1 14.2 19.6 22.1 8.5 10.3 7 29.2-0.2 28.1-13.7-2.1-17-14.3-31.7-22.2z"/><path fill-rule="evenodd" class="a" d="m43.3 33.1c3-6.7 9.1-12.8 11.9-11.9 9.5 3 3.9 17-2.7 33.9-1.6 4.1-7.7 24.3-7.9 21.1-0.8-14.3-2.1-17.6-1.3-43.1z"/><path fill-rule="evenodd" class="a" d="m76.7 124.4c16.3 8.7 60.7 24.2 60.7 43.4 0 11.8-10.9 27.8-35 28-24.2 0.3-51.3-8.8-63.3-24.6-12-15.8-21.6-32.4-21.3-67.6 0.1-12.1 8.3-96.3 24-71.9-1.3 24.3-0.8 25.8 1.5 50.9 0.3 3.2 0.3 15.6 0.3 15.6-11.9 6-10 21.4-4.2 30.8 7.2 11.7 16.1 19.4 18.4 20.9 2.3 1.6 6.4 3.8 6.6 2.6 0.7-3.4-13.2-14.3-19.6-22.2-8.4-10.2-7-29.1 0.2-28 13.7 2.1 17 14.3 31.7 22.1z"/></svg>